<?xml version="1.0" encoding="UTF-8"?>
<svg xmlns="http://www.w3.org/2000/svg" viewBox="0 0 1200 720" width="100%" preserveAspectRatio="xMidYMid meet">
<defs><radialGradient id="heat" cx="50%" cy="50%" r="50%"><stop offset="0%" stop-color="#ff2200" stop-opacity="0.75"/><stop offset="55%" stop-color="#ffaa00" stop-opacity="0.35"/><stop offset="100%" stop-color="#ffaa00" stop-opacity="0"/></radialGradient></defs>
<rect width="1200" height="720" fill="#f2f4f6"/>
<path d="M 1006.2,191.1 L 1033.8,221.5 L 969.2,304.6 L 738.5,415.4 L 600.0,553.8 L 461.5,636.9 L 369.2,581.5 L 507.7,470.8 L 692.3,360.0 L 876.9,249.2 L 1006.2,191.1 Z" fill="#cfe3ee" fill-opacity="0.6"/>
<path d="M 985.8,168.9 L 928.6,243.1 L 915.7,271.4 L 830.8,298.0 L 627.7,371.1 L 387.7,348.9 L 341.5,299.1 L 203.1,360.0" fill="none" stroke="#333" stroke-width="4" stroke-linecap="round"/>
<path d="M 985.8,168.9 L 840.0,221.5 L 928.6,243.1" fill="none" stroke="#333" stroke-width="4" stroke-dasharray="8,6" opacity="0.55"/>
<circle cx="332.3" cy="293.5" r="77.0" fill="url(#heat)"/>
<circle cx="258.5" cy="360.0" r="77.0" fill="url(#heat)"/>
<circle cx="212.3" cy="371.1" r="77.0" fill="url(#heat)"/>
<circle cx="923.1" cy="304.6" r="77.0" fill="url(#heat)"/>
<circle cx="913.8" cy="271.4" r="77.0" fill="url(#heat)"/>
<circle cx="378.5" cy="238.2" r="99.0" fill="url(#heat)"/>
<circle cx="258.5" cy="365.5" r="77.0" fill="url(#heat)"/>
<circle cx="987.7" cy="249.2" r="77.0" fill="url(#heat)"/>
<circle cx="756.9" cy="415.4" r="77.0" fill="url(#heat)"/>
<circle cx="415.4" cy="77.5" r="77.0" fill="url(#heat)"/>
<circle cx="923.1" cy="321.2" r="77.0" fill="url(#heat)"/>
<circle cx="923.1" cy="210.5" r="77.0" fill="url(#heat)"/>
<circle cx="923.1" cy="360.0" r="77.0" fill="url(#heat)"/>
<circle cx="332.3" cy="293.5" r="6" fill="#1f6feb" stroke="white" stroke-width="1.5"/>
<circle cx="258.5" cy="360.0" r="6" fill="#1f6feb" stroke="white" stroke-width="1.5"/>
<circle cx="212.3" cy="371.1" r="6" fill="#1f6feb" stroke="white" stroke-width="1.5"/>
<circle cx="923.1" cy="304.6" r="6" fill="#1f6feb" stroke="white" stroke-width="1.5"/>
<circle cx="913.8" cy="271.4" r="6" fill="#1f6feb" stroke="white" stroke-width="1.5"/>
<circle cx="378.5" cy="238.2" r="6" fill="#d33" stroke="white" stroke-width="1.5"/>
<circle cx="258.5" cy="365.5" r="6" fill="#d33" stroke="white" stroke-width="1.5"/>
<circle cx="987.7" cy="249.2" r="6" fill="#1f6feb" stroke="white" stroke-width="1.5"/>
<circle cx="756.9" cy="415.4" r="6" fill="#1f6feb" stroke="white" stroke-width="1.5"/>
<circle cx="415.4" cy="77.5" r="6" fill="#1f6feb" stroke="white" stroke-width="1.5"/>
<circle cx="923.1" cy="321.2" r="6" fill="#1f6feb" stroke="white" stroke-width="1.5"/>
<circle cx="923.1" cy="210.5" r="6" fill="#d33" stroke="white" stroke-width="1.5"/>
<circle cx="923.1" cy="360.0" r="6" fill="#1f6feb" stroke="white" stroke-width="1.5"/>
<circle cx="985.8" cy="168.9" r="3" fill="#333"/>
<text x="993.8" y="172.9" font-size="14" font-family="Noto Sans TC,Arial,sans-serif" fill="#333">大溪老街</text>
<circle cx="915.7" cy="271.4" r="3" fill="#333"/>
<text x="923.7" y="275.4" font-size="14" font-family="Noto Sans TC,Arial,sans-serif" fill="#333">崁津大橋</text>
<circle cx="553.8" cy="526.2" r="3" fill="#333"/>
<text x="561.8" y="530.2" font-size="14" font-family="Noto Sans TC,Arial,sans-serif" fill="#333">石門水庫</text>
<circle cx="387.7" cy="348.9" r="3" fill="#333"/>
<text x="395.7" y="352.9" font-size="14" font-family="Noto Sans TC,Arial,sans-serif" fill="#333">龍潭大池</text>
<circle cx="203.1" cy="360.0" r="3" fill="#333"/>
<text x="211.1" y="364.0" font-size="14" font-family="Noto Sans TC,Arial,sans-serif" fill="#333">大坪 41.5K</text>
<g font-family="Noto Sans TC,Arial,sans-serif">
<text x="24" y="36" font-size="20" font-weight="700" fill="#111">台4線大溪-龍潭段 事件熱點示意</text>
<text x="24" y="60" font-size="13" fill="#555">紅=路殺｜藍=防災｜紫=重疊｜黑實線=台4線本線｜虛線=台3共線段</text>
<rect x="940" y="24" width="240" height="120" fill="white" stroke="#ddd" rx="4"/>
<circle cx="958" cy="54" r="6" fill="#1f6feb"/><text x="974" y="59" font-size="13" fill="#333">防災事件</text>
<circle cx="958" cy="80" r="6" fill="#d33"/><text x="974" y="85" font-size="13" fill="#333">路殺事件</text>
<circle cx="958" cy="106" r="6" fill="#7d1fa8"/><text x="974" y="111" font-size="13" fill="#333">同地重疊（500m 內）</text>
<circle cx="958" cy="132" r="14" fill="url(#heat)"/><text x="980" y="137" font-size="13" fill="#333">熱力（事件密度）</text>
</g>
</svg>